<?xml version="1.0" encoding="UTF-8" standalone="no"?>
<svg width="284px" height="424px" viewBox="0 0 284 424" version="1.1" xmlns="http://www.w3.org/2000/svg" xmlns:xlink="http://www.w3.org/1999/xlink">
    <!-- Generator: Sketch 39.1 (31720) - http://www.bohemiancoding.com/sketch -->
    <title>Group 6</title>
    <desc>Created with Sketch.</desc>
    <defs></defs>
    <g id="Page-1" stroke="none" stroke-width="1" fill="none" fill-rule="evenodd">
        <g id="Group-6" fill="#EB8422">
            <g id="Page-1">
                <path d="M156.8952,-0.0004 L156.4312,0.4536 L149.5182,0.4396 L142.7842,2.3566 L135.9892,3.5386 L128.9812,2.7026 L122.0712,2.9956 L115.2622,4.1656 L108.5972,6.1826 L101.6182,6.6296 L96.9572,10.9516 L92.9742,15.0426 L90.4682,20.1996 L83.3302,23.0606 L76.5532,26.9046 L70.3332,29.4936 L65.4792,34.4466 L59.2182,36.9826 L54.1252,41.4046 L48.0182,44.2876 L42.3632,47.9226 L37.1102,52.1996 L34.2722,58.3306 L31.5122,64.5166 L32.0252,71.2966 L29.6822,77.6466 L29.1802,84.2536 L30.1612,91.0496 L26.8662,97.2956 L26.6722,103.9396 L26.0302,110.5246 L24.9882,117.0646 L25.4382,123.7826 L25.1102,130.4076 L23.9362,136.9336 L22.0382,143.3766 L22.6672,150.1136 L21.7092,156.6626 L19.3162,163.0536 L19.4362,169.7266 L18.1222,176.2406 L18.5412,182.9396 L17.5072,189.4816 L16.4832,196.0326 L17.2312,202.7576 L16.3182,209.3736 L14.5922,215.9406 L15.1942,222.6526 L13.7902,229.2376 L13.3922,235.8886 L13.0682,242.5456 L12.2632,249.1686 L12.2922,255.8476 L11.9472,262.5056 L11.5842,269.1616 L11.0532,275.8086 L11.7702,282.5306 L10.6762,289.1476 L9.9142,295.7846 L10.9102,302.5136 L9.4572,309.1166 L10.5482,315.8446 L9.8552,322.4826 L9.7512,329.1426 L9.0432,335.7766 L9.2062,342.3646 L10.2322,349.0926 L8.5882,355.7026 L6.8482,362.1206 L6.8812,369.1086 L5.1442,375.7266 L3.1312,382.2916 L1.3132,388.9036 L0.0002,396.2136 L7.1412,396.7416 L13.7692,395.9716 L20.3112,396.3596 L26.8642,396.6246 L33.3832,397.3016 L39.9172,397.8796 L46.4872,397.9876 L52.9312,399.3756 L53.4592,398.4706 L53.5172,392.1736 L53.2712,385.8946 L52.3742,379.6416 L50.9522,373.4076 L52.5592,367.0456 L51.5962,360.7936 L51.1122,354.5196 L50.3682,349.5456 L52.0512,344.5076 L51.5402,338.8326 L50.2802,333.0846 L50.7062,334.8476 L57.2112,336.6166 L63.3812,338.4586 L69.4432,340.6266 L75.8272,341.6946 L81.8012,344.2416 L88.3012,344.7576 L94.1942,347.8586 L100.8212,347.6026 L106.8832,350.3476 L113.5132,349.2796 L119.8322,349.9126 L124.8452,351.5886 L129.8722,350.2496 L136.8892,349.4176 L143.9032,349.8276 L150.4642,349.3716 L157.0522,351.8476 L163.6152,350.8076 L170.1612,349.7186 L176.7862,351.1566 L183.2892,349.5336 L189.8972,349.8256 L196.4742,349.4156 L202.8782,346.7766 L209.8652,347.0856 L215.9282,343.8366 L222.5962,342.2536 L227.4792,337.3996 L227.7442,337.8046 L229.1722,330.8706 L230.0342,323.8386 L230.4522,316.7486 L232.7562,309.9456 L232.2902,316.0666 L230.6392,322.3166 L230.3212,328.4896 L230.7552,334.0446 L231.9392,328.8746 L233.8892,322.7706 L234.4492,316.3976 L233.7682,310.0266 L234.3722,303.6496 L232.3022,297.3526 L233.1032,290.9586 L231.8012,284.6536 L232.5152,278.2466 L232.6352,271.8666 L232.5382,265.4956 L230.9052,259.2166 L231.9952,252.7736 L230.0432,246.5326 L231.0402,239.8726 L230.2642,233.3466 L227.5962,226.8666 L228.9142,219.7986 L227.0752,213.2636 L225.6542,206.6546 L224.6162,199.9726 L222.1052,193.5746 L220.4532,187.4406 L219.6492,181.1426 L219.5802,174.7016 L217.0342,168.7246 L216.0912,162.4486 L216.6102,155.9206 L214.6922,149.8206 L214.2732,143.4756 L212.2472,137.3656 L211.8772,131.0166 L212.0842,124.4976 L210.4672,125.2346 L210.5292,130.7656 L209.9252,137.2656 L211.8392,143.4586 L211.8752,149.9296 L212.9732,156.2316 L214.1902,162.5146 L214.9632,168.8746 L216.5792,175.0856 L217.8412,181.3616 L219.0902,187.6386 L220.1742,193.9476 L222.5392,200.3276 L223.1082,207.0546 L223.9732,213.7176 L226.5192,220.0736 L226.5522,226.8766 L228.7982,233.4156 L228.8012,240.0016 L229.3962,246.5756 L229.3332,253.4316 L229.8532,260.2556 L230.9802,267.0406 L230.2342,273.9346 L229.8792,280.8066 L231.6702,287.5726 L231.6132,294.4296 L231.2312,301.1956 L230.0942,301.0446 L229.1192,308.8066 L223.6612,309.2696 L217.6552,311.3036 L211.4992,312.1846 L205.3482,313.1836 L199.1472,313.7666 L193.1432,314.4176 L199.2842,316.0836 L205.2722,314.3716 L211.2622,312.6576 L217.5812,313.5186 L223.5232,311.4306 L229.2052,310.9466 L228.2102,317.3206 L229.0712,323.9996 L226.4532,330.2696 L226.9362,336.9406 L220.6192,339.3136 L215.3252,343.3926 L209.0122,345.0516 L202.5642,345.9056 L196.2212,347.2686 L189.7852,346.2876 L183.5662,347.7686 L177.2662,348.3486 L170.9372,348.3036 L164.6332,349.2016 L158.2922,348.3936 L151.4692,349.3506 L152.7342,341.6496 L151.3332,334.5306 L153.6382,327.6546 L154.1542,320.2166 L155.6122,319.7906 L165.3582,320.7366 L173.9602,318.7226 L179.1822,316.8756 L186.2512,315.6086 L179.0102,316.4306 L173.9602,316.6106 L164.9392,316.8956 L155.6122,317.5186 L153.1362,319.2436 L151.8812,325.1346 L149.1842,330.7676 L149.5722,336.8116 L149.8702,342.7846 L150.2952,349.3136 L143.3352,347.5426 L136.6082,347.8866 L129.8812,347.8866 L128.9932,348.7306 L131.0092,342.3416 L130.2992,335.8416 L130.2992,329.3886 L130.7622,322.9526 L130.1352,316.4976 L131.0712,310.0566 L129.9212,303.6216 L131.4282,297.1186 L129.4902,290.7596 L130.5762,284.1826 L127.7982,278.0656 L127.2212,271.6196 L128.3062,265.0836 L126.5132,258.7886 L125.7432,254.7406 L125.7492,258.9466 L124.9572,265.4636 L125.1702,271.9306 L126.6802,278.2576 L126.8302,284.6816 L129.2602,290.9056 L128.5582,297.3856 L129.7612,303.7776 L128.7862,310.2176 L128.2762,316.6316 L127.8732,323.0356 L128.9142,329.4886 L127.1452,335.8346 L128.3442,342.3216 L127.1402,347.7616 L119.8322,349.0996 L113.9972,347.1736 L114.0292,348.3646 L113.4102,341.6576 L113.3592,334.9396 L112.3332,328.2656 L112.9962,321.5276 L111.7252,314.8426 L113.2992,308.0956 L111.6772,301.3866 L113.4562,294.7126 L112.0502,287.8566 L113.0292,280.6316 L113.1052,273.1086 L110.0162,267.8266 L107.6472,262.2286 L106.7932,256.0236 L106.1222,262.6006 L108.6252,268.2306 L109.7422,274.2386 L112.2842,280.7976 L110.2422,287.5896 L111.3212,294.4396 L111.2692,301.1346 L111.7052,307.8346 L110.2842,314.5776 L110.5022,321.3016 L111.4022,327.9966 L112.0662,334.6916 L111.7322,341.4346 L111.8172,347.7016 L106.2072,347.9246 L100.8122,345.4736 L93.9062,345.5796 L93.9412,344.9836 L86.3122,342.9916 L80.3652,341.1096 L80.3742,334.8646 L80.8372,328.3686 L80.0412,321.8246 L81.1862,315.2946 L80.2982,314.5056 L74.9732,313.0846 L69.9682,311.2686 L63.2032,307.8756 L55.7232,306.7236 L52.3552,303.5196 L53.7682,302.0736 L52.7242,295.3476 L52.5072,288.6206 L52.9502,281.9036 L52.8712,275.0836 L54.2442,270.0786 L53.3182,264.8516 L54.9442,265.3526 L56.8892,258.4746 L61.7092,253.2006 L63.4132,246.1926 L67.0382,240.2496 L71.8872,234.9856 L74.0992,228.2556 L76.7492,221.7686 L80.3562,216.1256 L76.1522,208.3716 L72.6702,215.0406 L70.3592,221.0636 L65.7832,225.8136 L63.7952,232.0166 L60.0162,237.2186 L56.6802,242.6746 L54.8382,249.2356 L54.9712,241.6916 L53.6022,234.8326 L54.6312,227.9336 L52.8342,221.3396 L51.3602,227.6046 L53.0222,234.3266 L53.3052,241.0766 L51.3562,247.8506 L52.3832,254.5906 L51.6272,261.3336 L52.6382,268.0986 L50.7902,274.6026 L51.6872,281.6186 L51.5692,288.4236 L51.9162,295.2456 L50.3622,302.0736 L50.3852,308.0726 L51.0022,314.0786 L51.2392,320.1006 L49.9382,326.0496 L48.3612,332.1126 L49.3802,338.3546 L48.0902,344.6316 L50.2862,349.5336 L49.2942,354.5196 L49.3742,360.6636 L50.1462,366.7886 L49.3262,372.9736 L50.7942,379.0666 L49.9142,385.2676 L50.9302,391.3776 L50.9432,397.5886 L44.1582,396.0166 L37.2542,396.2086 L30.4042,395.6286 L23.5512,395.1426 L16.6062,395.8306 L9.7672,395.0006 L1.9862,394.8026 L3.6942,387.6356 L5.0302,381.3786 L6.5722,375.1576 L9.0202,369.1196 L8.3262,362.4296 L10.8642,355.9146 L10.4782,349.0036 L11.5242,342.0326 L9.9312,335.4996 L10.3292,328.8616 L11.9172,322.2796 L12.4692,315.6606 L10.8162,308.9286 L13.2852,302.4076 L12.3872,295.7066 L13.1822,289.1016 L13.4272,282.4646 L14.4622,275.8716 L13.9492,269.1856 L13.4752,262.5066 L14.9122,255.9386 L16.0702,249.3536 L16.2392,242.7046 L16.8962,236.0876 L16.3012,229.3926 L17.6472,222.8166 L17.9442,216.1746 L17.2742,209.4656 L17.7062,202.8336 L19.4802,196.2916 L19.1742,189.6616 L19.3022,183.0396 L20.4592,176.5296 L21.8262,170.0496 L22.1452,163.4496 L24.0812,157.0326 L23.0292,150.2726 L23.2232,143.6536 L24.8332,137.1986 L26.4002,130.7376 L27.4832,124.2226 L26.3072,117.4326 L27.5852,110.9366 L29.0812,104.4696 L30.7522,98.0296 L30.6012,91.3546 L32.4942,84.9476 L32.7962,78.3316 L32.3232,71.5986 L35.5322,65.4226 L35.5142,60.6126 L37.6652,62.8916 L35.8042,64.5056 L37.9922,70.5526 L38.6582,77.1996 L39.2722,79.8916 L39.1472,78.5446 L38.5732,72.4786 L39.9802,73.4166 L42.3742,69.6156 L46.6502,75.0456 L50.6222,80.6956 L45.0252,87.1706 L45.9552,89.0766 L51.7432,81.4876 L55.1612,87.9426 L60.6402,92.1716 L57.2822,93.5076 L58.9242,95.0406 L50.7802,95.8756 L43.4002,95.5476 L41.4942,90.4106 L39.8612,85.0836 L38.6892,90.7066 L40.6522,97.1536 L42.5952,103.6036 L41.9562,110.4496 L44.2352,116.8556 L44.4702,123.5686 L45.1882,130.2136 L47.7372,136.6036 L46.7842,143.4686 L48.8932,149.9256 L48.5542,156.6896 L51.0062,163.1406 L51.0112,163.2636 L51.9402,157.4716 L49.6582,151.3396 L48.6812,145.0626 L49.8562,138.4956 L48.0162,132.3296 L47.8602,125.9286 L45.8302,119.7946 L46.2292,113.3046 L43.6982,107.2516 L43.1482,100.1056 L49.9052,98.9926 L56.6102,99.8846 L63.1612,99.2086 L69.6472,97.9046 L76.1662,96.8726 L82.7912,96.8716 L89.2552,96.7816 L90.0342,103.0086 L88.6512,109.7206 L90.7802,116.3936 L89.7942,123.0996 L89.8342,129.7966 L90.4692,136.4886 L89.4632,143.1966 L90.7192,149.8846 L89.6022,156.5956 L90.3652,163.2916 L90.1572,169.9926 L89.1342,176.6996 L89.8722,183.3946 L89.8302,190.0936 L89.8692,196.7906 L91.0722,203.4856 L90.7242,210.1876 L91.2352,215.4856 L92.4862,210.3976 L91.6142,203.8466 L93.0012,197.2956 L91.4402,190.7496 L91.5962,184.1976 L92.8682,177.6396 L93.0652,171.0856 L91.0242,164.5496 L93.0912,157.9866 L91.7692,151.4486 L92.1322,144.8946 L91.9312,138.3436 L92.5132,131.7816 L91.5342,125.2376 L90.5892,118.6936 L91.5502,112.1256 L92.2262,105.5606 L91.9042,99.0096 L92.0672,92.4516 L90.9682,85.9116 L91.8112,79.3476 L91.5972,72.7976 L90.4102,66.2636 L90.7732,60.2006 L88.8352,58.8936 L89.0812,64.8656 L87.2132,68.5556 L82.6662,62.8266 L78.9522,57.4196 L82.2892,53.9906 L86.8842,49.7146 L84.1802,49.5656 L81.8322,53.4466 L77.2102,56.2796 L71.6492,48.3036 L75.2722,46.1246 L72.7132,45.5416 L69.7972,47.6296 L65.5242,41.4206 L63.4082,42.0536 L68.6032,48.0006 L61.7632,51.6396 L56.1182,56.4546 L52.1602,53.1806 L51.0452,48.7776 L56.5412,44.7456 L62.8462,40.6656 L68.6832,38.5076 L74.1352,35.5986 L74.6632,36.1016 L78.8932,32.1626 L83.6402,28.7156 L81.6372,26.0156 L87.0092,24.2556 L91.7102,21.7676 L96.4472,25.3166 L97.9642,27.1896 L95.8022,32.3776 L91.9822,36.5976 L88.4272,41.1326 L87.2252,41.0536 L88.5042,41.4346 L89.4482,48.1636 L93.3572,53.6776 L94.1732,60.4076 L98.2632,65.9016 L100.2122,72.1996 L100.7192,78.9606 L103.9512,84.8416 L106.5102,90.9986 L107.4972,97.5826 L108.4352,104.0176 L111.5672,97.4046 L112.0072,90.5976 L114.1352,84.1496 L114.4302,77.3126 L117.1462,70.9866 L116.9762,64.0526 L118.3062,57.4306 L118.9462,53.1706 L118.1812,55.4956 L116.8602,61.5486 L115.3342,67.5586 L112.9062,73.3796 L113.6142,79.8616 L110.8652,85.6156 L110.4502,91.8696 L107.8402,97.5126 L106.6392,91.5246 L105.1362,85.1286 L104.4732,78.4316 L102.6202,72.0716 L98.5442,66.5046 L98.2412,59.5776 L94.6852,53.8686 L92.6312,47.5856 L89.9922,41.6736 L94.5992,38.0196 L97.6062,32.7766 L99.0662,27.3116 L98.9032,23.2776 L93.3082,19.8016 L96.0682,13.6036 L102.5782,10.0846 L108.9922,7.7356 L115.8552,7.6446 L122.5832,6.6476 L129.2252,4.7656 L136.0052,4.0346 L142.9172,4.6816 L149.6082,3.0926 L156.5972,1.9396 L161.8162,4.2956 L166.9412,6.8296 L172.4272,8.3646 L173.2542,11.5826 L170.1612,16.4246 L165.7412,21.5106 L160.1982,25.4046 L154.5322,29.0506 L148.9282,32.5526 L144.5302,37.4346 L138.9182,40.1716 L138.4882,40.0426 L136.8502,46.3826 L137.0452,52.9506 L135.2092,59.2646 L134.9882,65.7806 L135.5822,72.3976 L132.5552,78.5596 L133.0592,85.1696 L133.2172,91.7406 L131.8432,98.1186 L130.8802,104.5466 L129.3072,110.8906 L128.7402,117.3706 L127.4272,123.7486 L127.5262,130.3356 L125.7442,136.6306 L125.2522,143.0356 L123.1862,149.3626 L124.8572,155.8996 L124.0092,162.3116 L122.9662,168.7326 L124.6862,175.2106 L123.9362,181.6426 L122.7492,188.0796 L123.2062,194.5306 L122.5902,200.9826 L123.9012,207.4236 L124.4632,213.8646 L122.9782,220.3396 L122.6002,226.8016 L123.0492,233.2456 L124.2462,239.6636 L123.5132,246.1456 L125.3222,251.3056 L125.4142,245.9916 L124.7362,239.5906 L127.0642,233.1026 L125.9572,226.7176 L124.8902,220.3216 L126.4522,213.8806 L125.0752,207.4786 L125.7772,201.0556 L125.9962,194.6386 L124.3742,188.2136 L126.2842,181.8106 L125.1002,175.3766 L126.3722,168.9836 L124.8062,162.5216 L125.3382,156.1116 L126.2452,149.7256 L126.7122,143.3246 L127.0732,136.8856 L129.6532,130.5016 L129.0332,123.6076 L131.4302,117.1576 L131.9622,110.4386 L131.1882,103.5486 L133.7812,97.1016 L133.2532,89.8496 L139.5852,89.4646 L133.8712,88.9486 L135.3452,86.3516 L141.4642,85.2906 L148.2592,84.5426 L155.2302,85.1406 L155.4362,85.3696 L155.9812,87.1786 L163.0792,86.5206 L170.5192,85.9226 L177.7302,88.0106 L178.0122,86.9136 L178.2022,87.4706 L185.2452,88.2506 L192.4992,87.3316 L199.2992,90.1376 L206.5162,90.2986 L212.5032,93.9776 L213.9592,93.3966 L212.5862,95.5976 L206.4512,92.3976 L199.7752,92.4116 L193.2302,91.9086 L186.7252,91.0206 L180.1322,91.2406 L173.6522,89.8886 L167.0422,90.5746 L160.5792,88.5296 L153.9522,89.8116 L147.4642,87.8866 L141.0252,89.5316 L147.1182,91.6576 L153.6922,90.9396 L160.1902,91.9816 L166.7822,91.1926 L173.2342,92.9206 L179.8732,91.7656 L186.4192,92.2096 L192.9912,92.4216 L199.3252,94.7166 L205.7782,95.6916 L212.4882,96.9136 L211.6302,103.0326 L209.8692,108.7666 L208.7172,115.1046 L210.7372,114.3076 L212.6052,108.5936 L211.8442,101.7686 L214.2872,95.5886 L215.8722,89.2296 L217.0422,82.7506 L219.9542,76.7766 L220.8972,70.1746 L224.7692,64.1646 L227.7992,57.7946 L232.3992,52.4496 L238.1202,48.3336 L243.1742,43.5136 L248.8642,39.9946 L250.9432,45.6706 L254.3092,51.1876 L256.1922,57.2706 L258.8702,62.7136 L257.3482,56.3516 L255.8842,49.8986 L252.6192,44.1216 L251.1892,37.6336 L250.3872,37.3866 L243.8032,35.5236 L238.9202,30.4346 L232.3722,28.5026 L227.1562,26.6796 L230.6722,30.9036 L236.5012,32.8996 L242.3112,34.8956 L247.7072,37.9816 L241.8212,40.7126 L236.7322,39.0186 L231.6152,36.5046 L226.7562,33.5226 L226.1182,33.8636 L226.8002,33.3696 L220.5612,31.1606 L215.6592,26.5086 L214.9672,27.9576 L209.3342,25.5046 L203.1672,26.3766 L197.5872,19.9676 L200.7272,17.4216 L206.5042,17.1316 L212.9702,19.1376 L219.1002,23.3136 L221.7772,24.2296 L219.4332,23.0936 L213.0442,19.1506 L206.7282,15.5826 L199.3422,15.0716 L198.3852,14.7146 L199.2262,15.7556 L197.0132,19.0406 L194.9142,17.2646 L190.2092,11.7736 L182.8552,11.8636 L175.9042,10.5696 L174.0862,6.3536 L167.6142,5.8936 L162.1772,3.1696 L156.8952,-0.0004 Z M178.4992,20.0996 L174.6262,13.7696 L176.1082,11.4526 L182.4052,12.9816 L188.8592,13.5116 L192.8592,18.3276 L195.5042,20.1056 L188.3642,21.9346 L182.8012,26.1216 L178.4992,20.0996 Z M165.5302,29.5866 L163.0192,24.6986 L169.1942,20.8446 L173.0752,15.3156 L177.2162,21.0906 L180.9182,27.1536 L175.2872,30.9226 L169.1212,33.4336 L165.5302,29.5866 Z M186.0762,32.4296 L184.0472,27.7826 L189.6862,23.8166 L195.9942,22.1876 L203.0632,26.9086 L204.2532,27.0586 L199.8772,30.4616 L194.7452,33.5706 L189.4942,36.2556 L186.0762,32.4296 Z M149.8962,34.9446 L157.0732,31.5726 L161.9322,26.0286 L164.7652,30.1716 L167.1702,34.5836 L161.0752,38.7156 L154.4512,41.5756 L149.8962,34.9446 Z M194.3662,42.1876 L189.8142,38.0746 L196.8732,35.5476 L201.8962,30.6246 L208.3212,27.5966 L214.8312,28.7696 L218.9322,32.8636 L224.2732,34.6066 L218.7822,36.9676 L213.0962,39.1846 L207.8872,42.4396 L202.0192,44.3306 L196.2572,48.0536 L194.3662,42.1876 Z M55.7112,40.4406 L61.0922,37.3876 L67.2322,35.6516 L71.8922,31.4096 L77.2812,28.3786 L80.4382,28.5046 L77.2932,31.4306 L73.3292,34.3916 L68.3762,38.0036 L62.4772,39.7856 L57.3772,43.3616 L52.5582,44.3076 L55.7112,40.4406 Z M172.0412,40.2346 L169.5302,35.3346 L176.5732,33.0156 L182.0142,28.8166 L185.0422,32.9196 L187.6412,37.3046 L181.9112,41.3116 L175.6262,44.0766 L172.0412,40.2346 Z M203.0582,55.3246 L197.1642,49.2426 L203.8692,46.9706 L208.7052,42.4496 L214.5852,40.0186 L221.0512,39.0106 L226.6532,35.3716 L235.3122,40.0726 L230.0422,44.2406 L226.9702,49.7106 L226.7242,49.5296 L221.6922,52.5276 L217.0802,56.4206 L211.5942,58.9966 L206.2632,63.2126 L203.0582,55.3246 Z M140.9782,41.6916 L148.6482,35.9326 L152.7472,42.6836 L145.7932,46.3826 L138.7062,50.3736 L140.9782,41.6916 Z M159.0092,47.7116 L155.3362,43.4176 L161.6702,39.6806 L168.2152,36.2956 L171.5902,40.4036 L173.5532,45.2916 L167.6812,49.8526 L160.5122,53.5046 L159.0092,47.7116 Z M180.5042,50.2746 L176.5972,45.9206 L182.5622,42.2666 L188.7502,38.9876 L192.4672,43.2626 L194.7932,48.3706 L189.1352,52.6556 L182.2732,56.1816 L180.5042,50.2746 Z M210.0522,90.2716 L212.6742,84.1096 L212.5492,77.5926 L215.1052,71.8186 L219.3292,66.9496 L221.2492,60.8816 L223.9742,55.1556 L228.0162,50.3196 L231.6422,45.1616 L236.5282,42.6016 L240.3322,42.9216 L233.9512,46.5936 L229.9552,52.2506 L226.0552,57.8006 L222.4002,63.5136 L220.4422,70.0146 L217.2292,76.8516 L216.1532,84.3436 L212.7462,90.8586 L210.0522,90.2716 Z M143.7932,49.9766 L148.5622,46.9866 L153.4682,44.4496 L156.8922,48.9546 L158.8772,54.2266 L154.7822,57.9346 L149.0902,59.7026 L144.4822,64.2426 L142.7722,57.7506 L138.0662,53.1846 L138.7452,53.1296 L139.4372,53.6426 L143.7932,49.9766 Z M164.3482,61.0686 L161.2842,54.8826 L168.8472,51.8226 L174.7542,47.0036 L178.0012,51.8166 L180.8122,56.8956 L174.8632,61.9756 L168.5362,66.2716 L164.3482,61.0686 Z M44.4602,51.3296 L49.0762,48.6316 L48.2952,49.2386 L51.9952,53.2056 L54.3232,57.7796 L49.1002,62.8936 L43.0592,65.9206 L37.0272,59.8056 L35.5112,59.8586 L35.5072,58.7166 L39.3532,53.2406 L38.9862,54.6266 L44.4602,51.3296 Z M189.9742,67.4926 L185.9512,62.9806 L184.4222,57.3426 L189.4132,53.0126 L196.3692,49.5896 L198.1832,55.1786 L202.0972,59.1876 L205.3802,63.6806 L198.9272,68.0496 L192.4862,73.2266 L189.9742,67.4926 Z M59.8792,63.1896 L56.8482,58.1536 L64.1092,54.8336 L69.6442,49.6336 L72.8762,53.2756 L75.7922,57.1836 L70.7512,61.8856 L63.7352,66.8486 L59.8792,63.1896 Z M211.6212,67.7656 L207.9742,64.1816 L213.3242,60.2856 L219.0712,56.7826 L225.2762,52.9886 L220.2042,59.1426 L217.3722,66.1966 L213.2392,73.0136 L211.6212,67.7656 Z M138.6652,63.5496 L138.3502,55.9506 L141.0532,60.3136 L143.3072,64.9086 L136.3132,71.3176 L138.6652,63.5496 Z M153.1562,76.1816 L149.1102,71.0196 L145.7352,65.4456 L150.5962,62.1956 L154.9352,58.3886 L159.8962,56.0216 L164.1992,61.4086 L166.0392,68.0006 L162.9972,72.6886 L157.7332,76.5116 L154.9512,82.7226 L153.1562,76.1816 Z M69.9992,74.6366 L64.2102,68.4306 L71.7792,63.8046 L77.1142,58.2696 L80.6952,64.9116 L86.0222,69.6176 L84.5992,72.2796 L79.6712,76.6196 L74.6282,81.5046 L69.9992,74.6366 Z M175.5492,78.8366 L171.8482,73.8586 L169.6152,68.1576 L174.9952,62.5206 L181.4412,59.2866 L185.6492,63.2906 L187.3722,69.2956 L191.7282,73.7546 L186.2432,76.3136 L182.6122,80.5936 L178.3962,84.3436 L175.5492,78.8366 Z M47.2942,74.3006 L43.4442,68.2506 L50.4502,64.7316 L55.7182,59.5266 L59.1842,63.8586 L62.3462,68.4436 L57.6672,74.2826 L52.0572,79.0446 L47.2942,74.3006 Z M37.7112,62.9406 L42.1622,67.6576 L38.0362,70.5696 L37.7112,62.9406 Z M201.7112,88.1866 L203.0102,87.0786 L198.0202,80.9336 L193.6962,74.3696 L200.0912,69.8526 L206.6232,64.7586 L209.1442,70.1066 L213.1112,74.1486 L211.8192,74.2016 L210.9352,81.9946 L208.2152,88.6706 L201.7112,88.1866 Z M134.5172,83.7876 L137.3022,74.3646 L136.5052,74.3446 L139.9652,70.0046 L144.2542,66.6556 L148.0862,72.0686 L150.4972,78.3136 L154.7322,83.8566 L147.6222,82.9346 L141.2582,84.4196 L134.5172,83.7876 Z M156.4412,84.1446 L159.8002,78.8176 L163.0982,73.5036 L167.7252,69.7266 L171.5452,74.2816 L173.0292,80.3216 L177.1672,84.9586 L170.0822,83.4396 L163.2942,84.1756 L156.4412,84.1446 Z M57.1662,86.1896 L53.3422,80.8666 L57.9292,74.9516 L63.5942,70.2636 L68.9872,75.5836 L73.6442,82.1106 L66.6512,85.7456 L61.4822,91.0906 L57.1662,86.1896 Z M80.0942,87.2376 L76.0482,82.3546 L80.7772,77.5086 L86.3052,73.3916 L87.5092,70.2826 L88.7972,73.5676 L89.7512,72.4496 L88.1672,78.7886 L90.1612,85.0266 L89.6812,91.4906 L85.0792,90.1876 L85.1382,91.1096 L80.0942,87.2376 Z M180.0812,85.2806 L186.2752,80.3866 L192.6952,74.9956 L195.7222,81.5966 L200.0012,87.2806 L193.3032,85.3236 L186.7102,85.6746 L180.0812,85.2806 Z M63.8832,93.2706 L62.1672,92.1106 L69.1962,88.8206 L74.4502,83.1016 L77.2932,88.4936 L82.0482,91.4806 L75.9342,92.2546 L69.6792,92.6706 L63.4852,94.1646 L63.8832,93.2706 Z M82.6602,93.0296 L89.7892,92.0106 L89.4082,94.8336 L82.6322,93.8916 L76.1452,95.5886 L69.5792,96.5096 L62.9652,96.8976 L56.4432,98.2936 L49.7552,98.0466 L43.2312,99.7746 L43.3022,99.0806 L49.5602,96.6086 L56.3732,97.3686 L62.7302,94.6166 L69.3732,94.0826 L76.1672,95.0026 L82.6602,93.0296 Z M57.8362,246.1536 L60.7172,240.4856 L64.0642,235.0796 L66.5292,229.1796 L70.4352,224.0856 L72.6152,218.0146 L76.7792,213.7026 L79.8142,215.6346 L75.2172,221.0906 L73.7482,227.6366 L70.3712,233.1146 L65.7812,237.9116 L63.8292,244.1956 L61.4502,250.2346 L57.9822,255.6636 L53.1022,261.5706 L53.7452,251.3196 L55.5862,252.2826 L57.8362,246.1536 Z M53.7502,310.2066 L52.7012,305.3106 L54.2032,307.5586 L52.8982,315.3246 L53.7502,310.2066 Z M71.0682,339.6506 L65.2032,336.1086 L58.2852,335.8056 L52.1102,332.8796 L52.7832,327.1176 L52.4932,321.4196 L53.8232,315.9776 L56.6542,309.6096 L62.7192,310.7276 L69.5952,312.4796 L78.3762,316.3856 L78.9132,322.4996 L77.7992,328.5826 L78.6662,334.7386 L76.8272,340.4656 L71.0682,339.6506 Z M158.7652,9.2996 L154.6682,13.8566 L160.0712,11.0316 L164.9872,7.3056 L163.3772,6.2166 L158.7652,9.2996 Z M154.4352,13.9786 L154.3552,14.0886 L154.5362,14.0036 L154.6682,13.8566 L154.4352,13.9786 Z M148.8032,16.6806 L143.9792,20.6496 L143.3432,20.7176 L137.7672,22.8456 L133.7542,27.3386 L130.3172,32.0896 L125.7752,37.8556 L120.9772,43.7086 L120.6732,43.3786 L120.1932,48.8376 L122.2202,44.4726 L127.7762,39.5046 L131.9472,33.1276 L134.8372,28.3186 L139.4842,25.0796 L144.5082,22.7156 L144.4742,21.4976 L150.5362,19.3126 L154.3552,14.0886 L148.8032,16.6806 Z M225.9842,26.2696 L227.1562,26.6796 L226.4492,25.8296 L221.7772,24.2296 L225.9842,26.2696 Z M119.3122,50.7356 L118.9462,53.1706 L120.1282,49.5756 L120.1932,48.8376 L119.3122,50.7356 Z M258.8822,62.7646 L259.5002,65.1876 L259.0212,63.0206 L258.8702,62.7136 L258.8822,62.7646 Z M260.4052,69.2766 L262.2552,75.3726 L263.6662,81.5896 L263.5582,87.9526 L266.0742,93.2976 L266.0082,87.8256 L265.7252,81.2436 L264.3282,74.7976 L260.5042,69.1216 L259.5002,65.1876 L260.4052,69.2766 Z M39.7042,84.5736 L39.8612,85.0836 L40.1442,83.7226 L39.2722,79.8916 L39.7042,84.5736 Z M139.5852,89.4646 L140.8422,89.5786 L141.0252,89.5316 L140.6492,89.4006 L139.5852,89.4646 Z M266.1002,95.4926 L266.1322,95.5826 L266.2072,93.5806 L266.0742,93.2976 L266.1002,95.4926 Z M265.9802,99.6116 L268.6612,104.9146 L269.9912,110.8376 L272.7242,116.7206 L273.6242,123.2466 L273.3272,129.9466 L274.0232,136.4846 L276.8742,142.7366 L275.5922,149.5296 L277.6102,155.9116 L277.8922,162.4946 L278.6642,169.0276 L278.5822,175.6336 L279.9682,182.1276 L281.2252,188.6546 L280.4602,195.2806 L279.8382,201.8676 L280.0302,208.4256 L279.4992,214.9506 L280.0542,221.5276 L278.6242,227.9586 L278.1962,234.4666 L278.6762,241.0666 L277.9942,247.5626 L275.9032,253.8806 L275.9792,260.4626 L275.5232,267.0076 L275.0702,267.0056 L274.4322,267.1146 L275.0952,273.5046 L274.1242,279.9526 L276.1542,286.2986 L276.9252,292.6916 L276.2662,299.1276 L275.6422,305.5626 L275.4942,311.9796 L277.6122,318.3526 L277.2432,324.7816 L276.6342,331.2076 L275.8192,337.6246 L276.7942,344.0406 L275.6192,350.4236 L275.7852,356.8056 L276.3292,364.3226 L273.4652,371.5136 L274.4582,378.9636 L276.0492,385.5706 L276.1122,392.3166 L276.5962,399.0206 L276.4822,405.7856 L277.3992,412.4616 L277.5942,419.1606 L271.0772,420.9516 L264.1152,420.8156 L257.2042,421.3056 L250.3832,419.4576 L243.3172,420.6786 L236.6362,418.6466 L230.4602,415.5496 L223.3012,413.4516 L224.2582,406.2976 L225.9162,399.9386 L225.9792,393.4456 L227.1512,387.0466 L226.4452,380.4836 L226.5292,373.9896 L228.6972,367.6846 L229.8182,361.2856 L230.1742,354.8096 L229.8602,348.2656 L231.5632,341.9456 L230.5762,335.8766 L228.2822,341.4616 L229.0632,348.1316 L228.5492,354.6406 L225.8752,360.9426 L226.2292,367.5456 L224.8852,373.9966 L225.4282,380.6146 L223.5222,387.0156 L224.5672,393.6696 L224.1022,400.1916 L223.9772,406.7406 L221.9232,413.1366 L221.9362,413.7956 L222.8372,413.6986 L228.0692,416.5156 L233.3302,419.4116 L239.0172,421.5696 L245.1442,421.5426 L251.0302,423.5536 L257.1152,421.6716 L264.4492,422.5016 L271.7642,421.8756 L278.9042,420.2346 L280.2722,420.7396 L278.4602,413.8306 L279.0092,406.7556 L277.6822,399.8526 L277.3182,392.8576 L277.7612,385.7846 L276.4452,378.8706 L276.8682,371.6366 L277.4882,364.3776 L277.1532,356.9836 L277.9092,350.6606 L277.2922,344.2406 L277.9942,337.8266 L277.9932,331.4016 L278.1562,324.9756 L279.2102,318.5306 L277.0332,312.1436 L278.3672,305.6736 L277.3002,299.2696 L278.4992,292.7996 L276.7562,286.4206 L276.7252,279.9916 L277.8072,273.5196 L277.8032,267.1856 L276.8442,260.5406 L279.8122,254.3436 L279.3242,247.6976 L280.4332,241.2396 L280.9192,234.7176 L282.1282,228.2546 L281.7332,221.6606 L281.3242,215.0756 L282.6542,208.4936 L283.4592,201.8316 L283.0882,195.1636 L283.0572,188.4906 L281.6532,181.8966 L282.0892,175.1866 L281.3862,168.5556 L279.6412,162.0326 L278.9222,155.4166 L279.4712,148.6476 L277.6922,142.1556 L276.2232,135.6416 L275.6992,128.9956 L275.2992,122.3166 L273.7512,115.8276 L273.2942,108.6876 L268.6222,102.7206 L266.1322,95.5826 L265.9802,99.6116 Z M108.2822,104.3406 L108.4952,104.4306 L108.4352,104.0176 L108.2822,104.3406 Z M108.5032,104.4866 L104.4982,110.6466 L103.8852,117.5396 L103.2692,124.4176 L101.7752,124.4226 L102.8442,130.7106 L101.8962,137.0566 L101.4872,143.4206 L102.9782,149.8326 L101.0002,156.1736 L102.1892,162.5686 L101.0112,168.9446 L102.7812,175.3146 L102.6032,181.6846 L102.2782,188.0676 L102.8422,194.4116 L104.3162,201.6456 L103.7962,208.4236 L106.3152,214.7706 L105.6532,221.5236 L106.6372,228.0636 L108.5692,234.6436 L105.7302,242.8166 L106.1842,249.0346 L109.3622,243.6966 L109.6282,234.6436 L108.4352,228.0126 L109.4782,221.2026 L107.3692,214.7166 L107.1862,207.9896 L106.4532,201.3336 L103.7702,194.2786 L105.0422,187.8226 L103.5102,181.5956 L104.5372,175.2796 L102.7692,168.9906 L103.1042,162.6856 L103.7822,156.3886 L103.9222,150.0826 L103.6472,143.7736 L105.3092,137.5196 L103.8852,131.1686 L104.6702,125.8076 L109.3062,126.5966 L110.0542,119.2986 L113.8702,113.3196 L114.6132,106.9936 L108.4952,104.4306 L108.5032,104.4866 Z M105.0222,122.9566 L105.6182,117.0896 L107.8232,111.5326 L108.4362,105.0436 L113.5562,107.5016 L110.2352,112.6626 L109.4332,118.3966 L107.8542,123.9406 L105.0222,122.9566 Z M50.8982,163.9716 L51.0642,164.4316 L51.0112,163.2636 L50.8982,163.9716 Z M51.3082,169.8336 L51.0272,176.5416 L51.0482,182.7016 L51.5662,188.8526 L50.1962,195.0446 L51.9502,201.1746 L50.6092,207.3726 L51.1362,214.1076 L52.7862,220.1906 L52.9302,214.2026 L53.3852,207.3126 L53.2812,201.1526 L52.7322,195.0046 L54.1012,188.8216 L52.3782,182.6976 L53.8042,176.5416 L53.1292,170.1516 L51.0642,164.4316 L51.3082,169.8336 Z M90.8872,216.9006 L91.2232,218.0826 L91.3732,216.9186 L91.2352,215.4856 L90.8872,216.9006 Z M80.3562,216.1256 L80.5462,216.4766 L80.4992,215.9026 L80.3562,216.1256 Z M90.5332,223.4356 L90.3982,229.9836 L90.0792,236.5336 L88.8532,243.0786 L90.4902,248.4736 L91.0822,243.1066 L91.1752,236.5596 L91.4942,230.0156 L92.7612,223.4936 L91.2232,218.0826 L90.5332,223.4356 Z M52.7652,221.0856 L52.8342,221.3396 L52.9572,220.8186 L52.7862,220.1906 L52.7652,221.0856 Z M90.3602,249.6546 L90.5142,251.0626 L90.8462,249.6456 L90.4902,248.4736 L90.3602,249.6546 Z M105.8962,249.5186 L106.7792,255.9276 L106.7932,256.0236 L106.8172,255.7836 L106.2142,249.4556 L106.1842,249.0346 L105.8962,249.5186 Z M89.3132,256.1886 L90.1732,262.7516 L88.7522,269.3036 L90.2692,275.8686 L90.0612,282.4246 L88.7332,288.9786 L88.4782,295.5376 L90.4602,302.0966 L88.3392,308.7626 L90.1862,314.6506 L90.3542,320.7016 L91.0812,326.6956 L91.0282,332.7706 L92.5242,338.6986 L93.9432,344.9506 L94.2862,339.0696 L93.7152,332.9686 L92.5532,326.9286 L93.0192,320.7246 L91.2332,314.7366 L91.8042,308.5186 L91.1062,302.0136 L91.3762,295.4736 L92.4592,288.9336 L91.7802,282.3886 L91.8752,275.8456 L91.8832,269.3016 L90.7162,262.7526 L91.0762,256.2066 L90.5142,251.0626 L89.3132,256.1886 Z M125.3032,252.4256 L125.7432,254.7406 L125.7412,252.4986 L125.3222,251.3056 L125.3032,252.4256 Z M186.8182,315.5076 L186.2512,315.6086 L186.8222,315.5436 L192.9602,314.4366 L193.1432,314.4176 L192.8652,314.3416 L186.8182,315.5076 Z M230.4762,335.2646 L230.5762,335.8766 L230.8472,335.2156 L230.7552,334.0446 L230.4762,335.2646 Z M93.9412,344.9836 L93.9512,344.9866 L93.9432,344.9506 L93.9412,344.9836 Z" id="Fill-1"></path>
                <polygon id="Fill-2" points="203.8026 126.7488 197.7986 130.1058 191.7596 133.3188 185.8136 136.7128 179.8676 140.1048 174.0336 143.7078 172.8936 142.1178 178.8486 138.5608 184.7646 135.0438 190.7516 131.6378 196.7886 128.3118 202.9206 125.0518"></polygon>
                <polygon id="Fill-3" points="260.5383 409.3766 260.7393 411.2486 256.9903 411.4246 250.0043 410.7666 243.1903 409.0396 236.6153 406.5396 230.3633 403.3496 231.2903 401.6936 236.7863 404.4976 242.4463 406.8546 248.3453 408.5506 254.4093 409.4586"></polygon>
                <polygon id="Fill-4" points="14.0095 384.264 15.5815 383.202 20.4695 386.327 26.2345 387.446 32.1195 387.372 32.3115 389.251 28.3665 389.469 20.5835 388.397"></polygon>
                <path d="M180.7029,214.2348 L186.8439,206.8808 L188.3659,212.9938 L190.2629,219.0058 L192.0409,225.0538 L193.8539,231.0908 L195.3569,237.2198 L197.4339,243.1758 L199.1529,249.2438 L201.0469,255.2598 L202.9749,261.2688 L204.7489,267.3228 L206.7769,273.2998 L209.0759,279.1818 L211.9899,284.7278 L204.3369,288.9348 L201.9659,282.7218 L199.9019,276.5438 L197.8929,270.3448 L195.5579,264.2618 L193.2049,258.1828 L191.4569,251.8948 L189.4949,245.6808 L187.1599,239.5808 L185.2659,233.3458 L183.5109,227.0708 L181.6679,220.8098 L180.7029,214.2348 Z M179.1709,213.9698 L179.9049,220.5668 L181.3869,227.0958 L183.4269,233.4738 L185.4459,239.8548 L187.5539,246.2068 L189.3889,252.6508 L191.8109,258.9008 L193.8809,265.2688 L196.1159,271.5788 L198.3589,277.8838 L200.4119,284.2588 L202.6429,290.5678 L203.3339,291.7108 L209.0919,288.4808 L214.7999,285.2928 L214.0629,284.5628 L211.2239,278.7448 L209.0569,272.6498 L206.7329,266.6098 L204.4639,260.5398 L202.8409,254.2628 L201.0129,248.0538 L198.7969,241.9548 L196.9829,235.7358 L195.2269,229.5008 L193.2159,223.3418 L191.5259,217.0868 L190.1059,210.7598 L187.9409,204.6438 L187.6209,202.6898 L183.5229,208.3628 L178.9879,213.6508 L179.1709,213.9698 Z" id="Fill-5"></path>
            </g>
        </g>
    </g>
</svg>